<?xml version="1.0" encoding="UTF-8"?>
<svg id="Layer_1" data-name="Layer 1" xmlns="http://www.w3.org/2000/svg" viewBox="0 0 235.21 202.09">
  <defs>
    <style>
      .cls-1, .cls-2, .cls-3, .cls-4, .cls-5, .cls-6, .cls-7, .cls-8 {
        fill: none;
        stroke-miterlimit: 10;
      }

      .cls-1, .cls-3 {
        stroke-width: .25px;
      }

      .cls-1, .cls-4 {
        stroke: #f9f9f9;
      }

      .cls-2 {
        font-family: Bauhaus93, 'Bauhaus 93';
        font-size: 105.73px;
        stroke: #d2d2f7;
        stroke-width: 2px;
      }

      .cls-3, .cls-5, .cls-7 {
        stroke: #f9f7f9;
      }

      .cls-9 {
        fill: #5454b5;
      }

      .cls-4, .cls-7 {
        stroke-width: .5px;
      }

      .cls-10 {
        fill: #bc44b6;
      }

      .cls-6 {
        stroke: #f4f2f4;
      }

      .cls-8 {
        stroke: #efe8ef;
      }
    </style>
  </defs>
  <g>
    <path class="cls-9" d="M157.41,50.73v-3.66h-3.66v-3.66h-7.32v-3.65h-43.9v3.65h-3.66v14.64h-3.66v10.97h-3.66v10.98h-3.65v14.63h-3.66v10.98h-3.66v7.32h-3.66v7.31h-3.66v7.32h-3.66v7.32h-3.66v7.31h-3.65v3.66h54.87v-3.66h3.66v-3.65h3.66v-3.66h7.32v-3.49c-.06,.32-.12,.64-.19,.95,.07-.31,.13-.63,.19-.95v-.17h.03c2.56-13.34,1.43-32.11,18.26-35.49v-4.76h-7.32v-3.65h-3.65v-3.66h3.65v-3.66h10.98v-3.66h3.66v-7.32h3.66v-18.29h-3.66Zm-10.98,25.61h-7.31v3.66h-3.66v3.66h-7.32v10.97h7.32v7.32h-3.66v3.66h-3.66v3.66h-3.66v3.66h-7.32v3.65h-3.65v3.66h-3.66v3.66h-7.32v3.66h-10.98v-3.66h3.66v-3.66h3.66v-3.66h3.66v-3.65h3.66v-3.66h3.66v-3.66h3.66v-3.66h3.65v-3.66h3.66v-7.32h-10.97v3.66h-7.32v-3.66h3.66v-3.65h3.66v-3.66h7.31v-3.66h3.66v-3.66h7.32v-3.66h7.32v-3.66h7.31v3.66h3.66v3.66Z"/>
    <rect class="cls-9" x="120.56" y="88.27" width="7.74" height="6.04"/>
  </g>
  <text class="cls-2" transform="translate(131.56 170.35)"><tspan x="0" y="0">M</tspan></text>
  <path class="cls-10" d="M92.69,20.55c-.14-.32-.36-.65-.66-1-.3-.34-.68-.92-1.14-1.75-.59-1.11-1.74-2.36-3.46-3.75-1.72-1.39-4.5-1.97-8.35-1.75-.69,.04-1.86,.3-3.53,.77-1.67,.47-3.47,1.07-5.43,1.8-1.96,.73-3.78,1.46-5.48,2.21-1.7,.74-2.98,1.39-3.85,1.94-5.2,3.13-9.39,6.83-12.58,11.1-3.19,4.27-5.35,8.45-6.49,12.54-.43,1.56-.54,2.81-.33,3.74,.21,.94,.57,2.24,1.1,3.89,.64,1.01,1.27,2.17,1.9,3.48,.62,1.31,1.27,2.04,1.94,2.17,.93,.97,1.56,2.19,1.91,3.67,1.52,1.39,2.71,2.37,3.56,2.94,4.33,3.42,8.23,6.79,11.7,10.11,3.48,3.32,6.32,6.3,8.53,8.93,2.21,2.63,3.49,4.69,3.83,6.16-.48,1.67-.79,2.88-.92,3.62-.13,.75-.42,1.3-.86,1.67-.45,.37-1.35,.85-2.71,1.44-2.15,.86-3.56,1.22-4.23,1.08-.67-.14-1.71-.32-3.13-.56-1.96-.08-3.19-.42-3.7-1.01-.51-.59-1.38-1.26-2.62-2-.27-1.08-1.08-2.23-2.42-3.44,.24-.36-.1-.68-1.03-.96-.93-.28-2.03-.37-3.31-.29-1.28,.09-2.33,.57-3.16,1.45-.78,.77-1.13,1.8-1.07,3.1,.06,1.3,.32,2.47,.78,3.51,.46,1.04,.88,1.65,1.26,1.83,1.08,.39,1.19,.76,.35,1.13-.34,.15-.26,.5,.23,1.05,.49,.56,1.09,1.15,1.77,1.8,2.36,2.4,5.43,3.82,9.22,4.26,3.78,.45,7.8,.1,12.05-1.03,3.55-.95,6.83-2.23,9.89-3.83v-8.36h3.32v-13.95c-.33-.5-.68-1.02-1.06-1.55-1.81-2.51-4.19-4.83-7.14-6.96-.53-.97-1.27-1.91-2.22-2.82-.95-.91-1.86-2.12-2.72-3.63-2.05-.3-3.6-.72-4.64-1.25-1.04-.53-1.76-1.01-2.15-1.44-.68-1.33-1.21-2.24-1.57-2.72-.36-.48-.61-.87-.73-1.16-.06-.14-.42-.67-1.07-1.59-.65-.91-1.46-2.23-2.41-3.96-1.5-1.57-2.69-2.85-3.57-3.83-.88-.98-1.27-2.14-1.15-3.48-.39-2.74,.35-5.49,2.23-8.24,1.88-2.75,4.7-5.59,8.47-8.53,1.26-.81,2.63-1.54,4.12-2.19,1.48-.65,2.87-1.17,4.17-1.57,1.29-.39,2.26-.56,2.89-.49,.58,.17,.73,1.09,.45,2.76-.28,1.67-.87,3.55-1.77,5.66-.89,2.36-1.16,3.94-.81,4.73,.35,.79,1.07,.95,2.17,.46,.44,.32,.63,.75,.57,1.29,.13,.29,.25,.4,.38,.35s.51-.39,1.15-1.02c1.04-.63,2.27-1.62,3.7-2.97,1.43-1.35,2.84-2.81,4.23-4.36,1.39-1.55,2.6-3,3.63-4.35,1.03-1.35,1.66-2.33,1.89-2.95,.2-.94,.22-1.58,.08-1.9Z"/>
  <path class="cls-5" d="M214.11,113.32c15.32,12.42,23.04,24.09,19.92,32.59-6.94,18.85-64.69,14.95-128.98-8.72C40.74,113.52-5.75,79.05,1.19,60.2c3.17-8.62,16.97-12.48,37.16-11.87"/>
  <path class="cls-6" d="M162.38,82.32c9.37,4.39,18.09,8.95,26,13.56"/>
  <path class="cls-8" d="M62.29,50.68c9.93,1.55,20.68,3.83,31.95,6.82"/>
  <path class="cls-7" d="M163.32,29.05c24.52,0,29.05-4.53,29.05-29.05,0,24.52,4.53,29.05,29.05,29.05-24.52,0-29.05,4.53-29.05,29.05,0-24.52-4.53-29.05-29.05-29.05Z"/>
  <path class="cls-4" d="M12.87,157.84c18.26,0,21.64-3.38,21.64-21.64,0,18.26,3.38,21.64,21.64,21.64-18.26,0-21.64,3.38-21.64,21.64,0-18.26-3.38-21.64-21.64-21.64Z"/>
  <path class="cls-3" d="M223.05,57.51c-13.48,.05-13.51,.1-13.55,19.31-.04-19.21-.07-19.25-13.55-19.31,13.48-.05,13.51-.1,13.55-19.31,.04,19.21,.07,19.25,13.55,19.31Z"/>
  <path class="cls-1" d="M64.41,182.78c-13.48,.05-13.51,.1-13.55,19.31-.04-19.21-.07-19.25-13.55-19.31,13.48-.05,13.51-.1,13.55-19.31,.04,19.21,.07,19.25,13.55,19.31Z"/>
</svg>